# xmcd CD database file
#
# Track frame offsets:
#	150
#	24013
#	43663
#	65127
#	79895
#	100215
#	118356
#	142885
#	159597
#	183081
#	210040
#
# Disc length: 3013 seconds
#
# Revision: 0
# Processed by: cddbd v1.5.2PL0 Copyright (c) Steve Scherf et al.
# Submitted via: CDex 1.51
#
DISCID=8a0bc30b
DTITLE=Damon Fowler - Sounds Of Home
DYEAR=2014
DGENRE=Blues
TTITLE0=Thought I Had it All
TTITLE1=Sounds of Home
TTITLE2=Trouble
TTITLE3=Spark
TTITLE4=Old Fools, Bar Stools, and Me
TTITLE5=Where I Belong
TTITLE6=Grit My Teeth
TTITLE7=Alison
TTITLE8=TV Mamma
TTITLE9=Do It For the Love
TTITLE10=I Shall Not Be Moved
EXTD=YEAR: 2014
EXTT0=
EXTT1=
EXTT2=
EXTT3=
EXTT4=
EXTT5=
EXTT6=
EXTT7=
EXTT8=
EXTT9=
EXTT10=
PLAYORDER=
